<svg width="187" height="52" fill="none" xmlns="http://www.w3.org/2000/svg"><path d="M14.345 29.079c4.839 0 7.863-2.138 7.863-5.645v-.085c0-3.421-2.938-5.816-8.555-5.816H3.543v11.546h10.802zm-1.296-14.71c4.32 0 7.345-1.626 7.345-5.303V8.98c0-3.164-2.506-5.131-7.086-5.131H3.543v10.605h9.506v-.086zM0 .512h13.653c3.63 0 6.568 1.026 8.383 2.823 1.296 1.368 2.073 3.078 2.073 5.046v.17c0 4.106-2.592 5.902-5.098 7.014 3.802 1.112 6.913 3.677 6.913 8.04v.085c0 5.474-4.666 8.638-11.666 8.638H0V.513zM71.119 27.71l2.246-2.65c3.37 2.993 6.568 4.532 10.975 4.532 4.32 0 7.172-2.31 7.172-5.388v-.086c0-2.907-1.641-4.618-8.382-6.072-7.345-1.625-10.801-3.934-10.801-9.151v-.086c0-4.96 4.407-8.638 10.542-8.638 4.666 0 8.037 1.283 11.234 3.934L92.03 6.842c-2.938-2.395-5.963-3.42-9.246-3.42-4.148 0-6.827 2.308-6.827 5.13 0 2.994 1.642 4.705 8.728 6.159 7.172 1.539 10.456 4.105 10.456 8.98v.085c0 5.474-4.58 8.98-10.975 8.98-5.012 0-9.16-1.71-13.048-5.046zM108.795.513h-3.629v31.73h3.629V.513zm74.403 15.994v-.086c0-7.184-5.358-13.085-12.617-13.085-7.345 0-12.53 5.815-12.53 13v.085c0 7.184 5.358 13.086 12.617 13.086 7.258 0 12.53-5.816 12.53-13zm-28.949 0v-.086C154.249 7.697 160.903 0 170.668 0 180.432 0 187 7.612 187 16.335v.086c0 8.724-6.654 16.421-16.419 16.421-9.851 0-16.332-7.612-16.332-16.335zm-8.987 8.723c-2.938 2.737-5.79 4.277-10.024 4.277-7.086 0-12.444-5.73-12.444-13.086v-.085c0-7.27 5.358-13 12.444-13 4.321 0 7.259 1.796 9.938 4.276.432-1.198.864-2.395 1.469-3.507-2.938-2.394-6.222-4.02-11.321-4.02-9.419 0-16.245 7.441-16.245 16.422v.085c0 9.151 6.826 16.336 16.073 16.336 5.098 0 8.468-1.71 11.493-4.362-.519-1.112-1.037-2.224-1.383-3.336zM47.096.599l-7.691 16.848h3.63L48.91 4.533l5.79 12.914h3.802L50.725.6h-3.63zm12.875 20.098H37.935l-5.27 11.632h3.715l3.803-8.467h17.455l3.716 8.467h3.889L59.97 20.697zm100.414 31.217l1.209-5.473h1.988l.173-.684h-4.753l-.173.684h1.988l-1.21 5.473h.778zm-5.617-3.164h-1.642l.518-2.395h1.556c.518 0 1.037.428 1.037 1.027.086.77-.432 1.368-1.469 1.368zm1.469 3.164l-1.124-2.48c1.21-.085 1.988-.94 1.988-2.052 0-1.027-.864-1.625-1.728-1.625h-2.247l-1.383 6.157h.778l.518-2.48h1.297l1.037 2.48h.864zm-9.16-.598c-1.21 0-2.074-.77-2.074-2.053 0-1.71 1.21-2.993 2.592-2.993 1.124 0 2.074.77 2.074 2.052 0 1.796-1.21 2.994-2.592 2.994zm-.087.684c1.901 0 3.543-1.625 3.543-3.678 0-1.71-1.296-2.65-2.851-2.65-1.901 0-3.543 1.624-3.543 3.677 0 1.71 1.296 2.651 2.851 2.651zm-7.95-3.25l.519-2.31h1.555c.605 0 1.037.428 1.037.942 0 .77-.518 1.368-1.469 1.368h-1.642zm-.691 3.164l.518-2.48h1.729c1.728 0 2.419-1.197 2.419-2.138 0-.855-.691-1.625-1.728-1.625h-2.333l-1.383 6.158h.778v.085zm-5.531-3.164l.519-2.31h1.555c.605 0 1.037.428 1.037.942 0 .77-.518 1.368-1.469 1.368h-1.642zm-.691 3.164l.519-2.48h1.728c1.728 0 2.419-1.197 2.419-2.138 0-.855-.691-1.625-1.728-1.625h-2.333l-1.383 6.158h.778v.085zm-5.185.086c1.642 0 2.333-1.026 2.679-2.48l.864-3.763h-.777l-.865 3.763c-.259 1.112-.777 1.881-1.901 1.881-1.037 0-1.642-.598-1.642-1.454 0-.17 0-.342.087-.427l.864-3.763h-.778l-.864 3.763c0 .085-.086.256-.086.427 0 1.283.95 2.053 2.419 2.053zm-6.654 0c1.469 0 2.247-.94 2.247-1.967 0-1.796-3.111-1.625-3.111-2.737 0-.513.519-1.026 1.296-1.026.692 0 1.383.256 1.815.855l.519-.513c-.432-.599-1.297-.94-2.247-.94-1.296 0-2.16.854-2.16 1.795 0 1.796 3.11 1.54 3.11 2.737 0 .513-.432 1.112-1.382 1.112-.864 0-1.642-.342-2.074-.941l-.519.513c.432.684 1.383 1.112 2.506 1.112zm-9.332 0c1.469 0 2.246-.94 2.246-1.967 0-1.796-3.11-1.625-3.11-2.737 0-.513.518-1.026 1.296-1.026.691 0 1.382.256 1.814.855l.519-.513c-.432-.599-1.296-.94-2.247-.94-1.296 0-2.16.854-2.16 1.795 0 1.796 3.111 1.54 3.111 2.737 0 .513-.432 1.112-1.383 1.112-.864 0-1.642-.342-2.074-.941l-.518.513c.345.684 1.382 1.112 2.506 1.112zm-6.222 0c1.469 0 2.247-.94 2.247-1.967 0-1.796-3.111-1.625-3.111-2.737 0-.513.518-1.026 1.296-1.026.691 0 1.383.256 1.815.855l.518-.513c-.432-.599-1.296-.94-2.247-.94-1.296 0-2.16.854-2.16 1.795 0 1.796 3.111 1.54 3.111 2.737 0 .513-.432 1.112-1.383 1.112-.864 0-1.642-.342-2.074-.941l-.518.513c.346.684 1.382 1.112 2.506 1.112zm-4.494-.086l.173-.684h-3.284l.519-2.138h3.284l.172-.684h-3.197l.432-1.967h3.284l.173-.684h-4.062l-1.382 6.157h3.888zm-6.221 0l1.382-6.157h-.778l-1.123 4.96-2.506-4.96h-.778l-1.382 6.157h.777l1.124-5.046 2.506 5.046h.778zm-7.432 0l1.382-6.157h-.777l-1.383 6.157h.778zM82.093 52c1.47 0 2.247-.94 2.247-1.967 0-1.796-3.11-1.625-3.11-2.737 0-.513.518-1.026 1.295-1.026.692 0 1.383.256 1.815.855l.519-.513c-.432-.599-1.297-.94-2.247-.94-1.296 0-2.16.854-2.16 1.795 0 1.796 3.11 1.54 3.11 2.737 0 .513-.432 1.112-1.382 1.112-.864 0-1.642-.342-2.074-.941l-.519.513C80.02 51.572 80.97 52 82.093 52zm-6.826 0c1.642 0 2.333-1.026 2.678-2.48l.865-3.763h-.778l-.864 3.763c-.26 1.112-.778 1.796-1.901 1.796-1.037 0-1.642-.599-1.642-1.454 0-.171 0-.342.086-.428l.864-3.763h-.777l-.865 3.763c0 .086-.086.257-.086.428 0 1.368.864 2.138 2.42 2.138zm-6.654-.77h-1.988l.519-2.138h1.814c.605 0 1.037.428 1.037.94-.086.6-.518 1.198-1.382 1.198zm.605-2.822h-1.901l.432-1.967h1.728c.518 0 .95.342.95.855 0 .513-.345 1.112-1.21 1.112zm-.605 3.506c1.469 0 2.16-.94 2.16-1.796 0-.598-.346-1.111-.95-1.282.777-.086 1.469-.77 1.469-1.625 0-.856-.692-1.454-1.556-1.454h-2.592l-1.383 6.157h2.852zm-11.148-.684H56.17l1.124-4.79h1.296c1.123 0 1.9.856 1.9 1.968 0 1.54-1.122 2.822-3.024 2.822zm-.086.684c2.679 0 3.889-1.881 3.889-3.506 0-1.54-1.21-2.651-2.593-2.651h-2.074l-1.296 6.157h2.074zm-4.32 0l1.382-6.157h-.778l-1.123 4.96-2.42-4.96h-.864l-1.383 6.157h.778l1.123-5.046 2.507 5.046h.777zm-9.765-.598c-1.21 0-2.075-.77-2.075-2.053 0-1.71 1.21-2.993 2.593-2.993 1.123 0 2.074.77 2.074 2.052 0 1.796-1.21 2.994-2.593 2.994zm-.087.684c1.901 0 3.543-1.625 3.543-3.678 0-1.71-1.296-2.65-2.852-2.65-1.9 0-3.543 1.624-3.543 3.677 0 1.71 1.297 2.651 2.852 2.651zm-7-.086l.605-2.565 3.284-3.592h-.95l-2.593 2.907-1.296-2.907h-.864l1.642 3.592-.605 2.566h.778zm-4.493 0l.173-.684h-3.37l.518-2.138h3.284l.173-.684h-3.284l.432-1.967h3.284l.173-.684h-4.062l-1.383 6.157h4.062zm-7.864-.684h-1.987l.518-2.138h1.815c.605 0 1.037.428 1.037.94 0 .6-.518 1.198-1.383 1.198zm.605-2.822h-1.9l.431-1.967h1.729c.518 0 .95.342.95.855 0 .513-.26 1.112-1.21 1.112zm-.605 3.506c1.47 0 2.16-.94 2.16-1.796 0-.598-.345-1.111-.95-1.282.778-.086 1.47-.77 1.47-1.625 0-.856-.692-1.454-1.556-1.454H22.38L21 51.914h2.851z" fill="#EA4F3D"/></svg>